
<svg xmlns="http://www.w3.org/2000/svg" viewBox="0 0 600 800" preserveAspectRatio="xMidYMid slice">
  <defs>
    <linearGradient id="s26-water" x1="0" y1="0" x2="1" y2="1">
      <stop offset="0" stop-color="#4a5c4e"></stop>
      <stop offset="1" stop-color="#2a3a2f"></stop>
    </linearGradient>
    <linearGradient id="s26-sand" x1="0" y1="0" x2="0" y2="1">
      <stop offset="0" stop-color="#d4c29a"></stop>
      <stop offset="1" stop-color="#a89577"></stop>
    </linearGradient>
  </defs>

  
  <rect width="600" height="800" fill="url(#s26-water)"></rect>

  
  <path d="M 230 0 Q 280 120 285 240 Q 292 360 300 460 Q 310 560 330 680 Q 350 760 380 800&#xA;           L 260 800 Q 240 720 220 620 Q 205 520 210 420 Q 218 300 228 180 Q 230 90 230 0 Z" fill="url(#s26-sand)"></path>

  
  <path d="M 250 100 Q 260 200 265 320 Q 270 460 280 600 Q 290 720 310 790" stroke="#e8d8b2" stroke-width="3" fill="none" opacity="0.6"></path>

  
  <g stroke="#3a4a3e" stroke-width="0.4" fill="none" opacity="0.4">
    <path d="M 0 60 Q 60 72 120 66 Q 170 60 200 70"></path>
    <path d="M 0 140 Q 80 148 140 142 Q 180 136 210 148"></path>
    <path d="M 0 240 Q 70 250 130 244 Q 170 238 200 252"></path>
    <path d="M 0 340 Q 60 352 120 346 Q 170 338 190 354"></path>
    <path d="M 0 440 Q 70 452 130 444 Q 170 436 195 452"></path>
    <path d="M 0 540 Q 80 552 140 544"></path>
    <path d="M 0 640 Q 80 652 150 644"></path>
    <path d="M 0 720 Q 90 730 160 724"></path>

    <path d="M 380 60 Q 440 72 500 66 Q 560 60 600 70"></path>
    <path d="M 380 140 Q 460 148 520 142 Q 570 136 600 148"></path>
    <path d="M 380 260 Q 450 272 510 266 Q 570 260 600 274"></path>
    <path d="M 400 360 Q 470 372 530 366 Q 580 360 600 374"></path>
    <path d="M 400 460 Q 470 472 530 466 Q 580 458 600 472"></path>
    <path d="M 420 560 Q 490 572 550 566 Q 590 560 600 572"></path>
    <path d="M 440 660 Q 510 672 570 666"></path>
    <path d="M 460 740 Q 520 752 590 748"></path>
  </g>

  
  <g fill="#1a2018" opacity="0.85">
    <path d="M 80 200 l 5 -1 l 5 1 l -2 1 l -3 -0.5 l -3 0.5 l -2 -1 z"></path>
    <path d="M 140 340 l 4 -0.8 l 4 0.8 l -1.5 0.8 l -2.5 -0.4 l -2.5 0.4 l -1.5 -0.8 z"></path>
    <path d="M 440 180 l 5 -1 l 5 1 l -2 1 l -3 -0.5 l -3 0.5 l -2 -1 z"></path>
    <path d="M 500 280 l 4 -0.8 l 4 0.8 l -1.5 0.8 l -2.5 -0.4 l -2.5 0.4 l -1.5 -0.8 z"></path>
    <path d="M 380 440 l 4 -0.8 l 4 0.8 l -1.5 0.8 l -2.5 -0.4 l -2.5 0.4 l -1.5 -0.8 z"></path>
    <path d="M 520 540 l 5 -1 l 5 1 l -2 1 l -3 -0.5 l -3 0.5 l -2 -1 z"></path>
    <path d="M 90 480 l 4 -0.8 l 4 0.8 l -1.5 0.8 l -2.5 -0.4 l -2.5 0.4 l -1.5 -0.8 z"></path>
    <path d="M 160 620 l 5 -1 l 5 1 l -2 1 l -3 -0.5 l -3 0.5 l -2 -1 z"></path>
  </g>
</svg>