<svg xmlns="http://www.w3.org/2000/svg" viewBox="0 0 1200 700" preserveAspectRatio="xMidYMid slice">
  <defs>
    <linearGradient id="tl-sky" x1="0" y1="0" x2="0" y2="1">
      <stop offset="0" stop-color="#E0D5C0"></stop>
      <stop offset="1" stop-color="#F5F0E8"></stop>
    </linearGradient>
  </defs>
  <rect width="1200" height="700" fill="url(#tl-sky)"></rect>

  
  <g fill="#c9b99a" opacity="0.35">
    <circle cx="120" cy="80" r="1"></circle><circle cx="340" cy="150" r="1.2"></circle>
    <circle cx="580" cy="220" r="1"></circle><circle cx="820" cy="90" r="1"></circle>
    <circle cx="1080" cy="180" r="1.2"></circle><circle cx="200" cy="420" r="1"></circle>
    <circle cx="460" cy="520" r="1.2"></circle><circle cx="720" cy="620" r="1"></circle>
    <circle cx="960" cy="470" r="1.2"></circle><circle cx="60" cy="240" r="1"></circle>
    <circle cx="1140" cy="340" r="1"></circle><circle cx="400" cy="80" r="1"></circle>
  </g>

  
  <path d="M 0 520 Q 120 500 240 510 Q 360 518 480 500 Q 600 485 720 498 Q 840 510 960 495 Q 1080 482 1200 492 L 1200 540 L 0 540 Z" fill="#1B2E4B" opacity="0.18"></path>

  
  <path d="M 0 560 Q 150 545 320 555 Q 500 566 680 550 Q 860 536 1040 548 Q 1140 555 1200 552 L 1200 700 L 0 700 Z" fill="#2a3a2f" opacity="0.85"></path>

  
  <g transform="translate(480, 300)">
    
    <rect x="0" y="0" width="70" height="260" fill="#8B3A2A"></rect>
    <rect x="0" y="0" width="70" height="8" fill="#6B2A1D"></rect>
    <rect x="-8" y="-18" width="86" height="22" fill="#8B3A2A"></rect>
    <rect x="-8" y="-18" width="86" height="4" fill="#6B2A1D"></rect>
    <rect x="6" y="-42" width="58" height="26" fill="#1B2E4B"></rect>
    <rect x="24" y="-58" width="22" height="18" fill="#C9B99A"></rect>
    
    <circle cx="35" cy="-49" r="14" fill="#C4583E" opacity="0.35"></circle>
    
    <g fill="#10192B">
      <rect x="30" y="40" width="10" height="18"></rect>
      <rect x="30" y="90" width="10" height="18"></rect>
      <rect x="30" y="140" width="10" height="18"></rect>
      <rect x="30" y="190" width="10" height="18"></rect>
    </g>
  </g>

  
  <g transform="translate(560, 440)">
    <rect x="0" y="0" width="120" height="120" fill="#C4583E"></rect>
    <polygon points="0,0 60,-30 120,0" fill="#6B2A1D"></polygon>
    <rect x="50" y="50" width="20" height="40" fill="#1B2E4B"></rect>
    <rect x="12" y="30" width="18" height="22" fill="#1B2E4B"></rect>
    <rect x="90" y="30" width="18" height="22" fill="#1B2E4B"></rect>
  </g>

  
  <g transform="translate(700, 280)">
    <polygon points="0,0 60,0 70,10 70,270 -10,270 -10,10" fill="#8B3A2A"></polygon>
    <rect x="-10" y="0" width="80" height="8" fill="#6B2A1D"></rect>
    <rect x="-18" y="-18" width="96" height="22" fill="#8B3A2A"></rect>
    <rect x="-18" y="-18" width="96" height="4" fill="#6B2A1D"></rect>
    <rect x="-2" y="-44" width="64" height="28" fill="#1B2E4B"></rect>
    <polygon points="-2,-44 30,-58 62,-44" fill="#10192B"></polygon>
    <rect x="22" y="-62" width="16" height="16" fill="#C9B99A"></rect>
    <circle cx="30" cy="-54" r="14" fill="#C4583E" opacity="0.35"></circle>
    <g fill="#10192B">
      <rect x="24" y="40" width="12" height="20"></rect>
      <rect x="24" y="100" width="12" height="20"></rect>
      <rect x="24" y="160" width="12" height="20"></rect>
      <rect x="24" y="220" width="12" height="20"></rect>
    </g>
  </g>

  
  <line x1="515" y1="258" x2="515" y2="210" stroke="#1A1208" stroke-width="1.5"></line>
  <polygon points="515,212 540,218 515,228" fill="#8B3A2A"></polygon>

  
  <g stroke="#C4583E" stroke-width="0.8" opacity="0.35" fill="none">
    <line x1="515" y1="251" x2="380" y2="150"></line>
    <line x1="515" y1="251" x2="650" y2="150"></line>
    <line x1="730" y1="236" x2="600" y2="140"></line>
    <line x1="730" y1="236" x2="860" y2="140"></line>
  </g>

  
  <g fill="#1A1208" opacity="0.7">
    <path d="M 180 200 l 6 -2 l 6 2 l -2.5 1.5 l -3.5 -0.8 l -3.5 0.8 l -2.5 -1.5 z"></path>
    <path d="M 230 180 l 5 -1.5 l 5 1.5 l -2 1.2 l -3 -0.6 l -3 0.6 l -2 -1.2 z"></path>
    <path d="M 950 160 l 5 -1.5 l 5 1.5 l -2 1.2 l -3 -0.6 l -3 0.6 l -2 -1.2 z"></path>
    <path d="M 1010 200 l 6 -2 l 6 2 l -2.5 1.5 l -3.5 -0.8 l -3.5 -0.8 l -2.5 1.5 z"></path>
  </g>

  
  <line x1="0" y1="560" x2="1200" y2="560" stroke="#8B3A2A" stroke-width="1" opacity="0.4"></line>
</svg>